Coordinates
version=1
nRows=17
nColumns=36
inDegrees=yes

Units are S.I. units (second, meters, Newtons, ...)
If the header above contains a line with 'inDegrees', this indicates whether rotational values are in degrees (yes) or radians (no).

endheader
time	pelvis_tilt	pelvis_list	pelvis_rotation	pelvis_tx	pelvis_ty	pelvis_tz	hip_flexion_r	hip_adduction_r	hip_rotation_r	knee_angle_r	knee_angle_r_beta	ankle_angle_r	subtalar_angle_r	mtp_angle_r	hip_flexion_l	hip_adduction_l	hip_rotation_l	knee_angle_l	knee_angle_l_beta	ankle_angle_l	subtalar_angle_l	mtp_angle_l	lumbar_extension	lumbar_bending	lumbar_rotation	arm_flex_r	arm_add_r	arm_rot_r	elbow_flex_r	pro_sup_r	arm_flex_l	arm_add_l	arm_rot_l	elbow_flex_l	pro_sup_l
     45.23333330	    -10.14266645	      0.12520845	     -2.02493496	      0.78332359	      0.79077344	      0.72381976	     34.59397926	      0.13648184	      2.18466602	      4.50673572	      0.07865738	      6.77372799	     -2.32354355	     -7.49999987	      1.01278809	      2.09271796	     -2.38549561	     17.82651705	      0.31113142	     21.19912319	      0.70729621	     -7.49999987	     12.35125288	      1.60212723	     -8.12525902	     -4.09178559	    -13.20096120	      7.23246032	     10.03647417	     97.73005984	      5.91111876	    -14.55434732	      8.78529636	     15.26516202	     93.31006319
     45.25000000	    -10.02433381	     -0.42417122	     -2.03414397	      0.78287486	      0.79053483	      0.72599391	     34.18392619	      0.95165700	      1.62613710	      6.05861504	      0.10574278	      5.71120204	     -2.68741954	     -7.49999987	      0.36818095	      1.35514593	     -2.59684668	     19.49485626	      0.34024943	     20.43819133	      0.47058034	     -7.49999987	     12.07866745	      2.32328008	     -8.25710502	     -3.61739920	    -13.64731821	      7.11186926	      9.81518897	     97.83066482	      5.98505363	    -14.22749784	      8.64635986	     14.89679970	     93.46597029
     45.26666670	     -9.83072734	     -0.92612577	     -2.02411703	      0.78281616	      0.79122509	      0.72737099	     33.71527801	      1.67290433	      1.13725046	      7.79686591	      0.13608098	      4.36342172	     -3.06824481	     -7.49999987	     -0.19496821	      0.68292811	     -2.75968461	     21.15709018	      0.36926088	     19.21681910	      0.31821565	     -7.49999987	     11.83275482	      2.98796433	     -8.20742763	     -3.07968133	    -14.02944507	      7.02545665	      9.76565283	     97.87100412	      5.91797240	    -13.87170618	      8.54974723	     14.58175819	     93.55172457
     45.28333330	     -9.50431885	     -1.46529608	     -2.01745557	      0.78516161	      0.79176478	      0.72839604	     33.08880029	      2.40097091	      0.85618009	      9.50902229	      0.16596375	      3.12272361	     -3.61427741	     -7.49999987	     -0.67722280	     -0.02685298	     -2.86139912	     23.05374801	      0.40236381	     17.40267377	      0.22702022	     -7.49999987	     11.54159841	      3.67043531	     -8.09876379	     -2.58754131	    -14.39111074	      6.94597520	      9.72758085	     97.89560063	      5.66711821	    -13.39127682	      8.45284595	     14.17992791	     93.61881521
     45.30000000	     -8.65500616	     -2.22418923	     -1.87510673	      0.79099069	      0.79230785	      0.73032175	     31.69003624	      3.34823229	      1.28653554	     10.96785014	      0.19142510	      1.53584400	     -5.82028120	     -7.49999987	     -1.55409688	     -0.96689828	     -2.68929491	     25.24232752	      0.44056173	     14.50497553	     -0.56738266	     -7.49999987	     10.75594792	      4.53763644	     -8.36263471	     -1.77845307	    -14.63634224	      7.18742437	      9.14110885	     94.36658934	      5.45587058	    -12.57757503	      7.79569195	     12.60884194	     90.03198953
     45.31666670	     -8.27370973	     -3.08214463	     -1.77119041	      0.80004691	      0.79279318	      0.73451799	     30.83070599	      4.42329161	      0.92825604	     12.74920606	      0.22251562	      1.28569740	     -6.39803428	     -7.49999987	     -1.73560116	     -2.30291771	     -3.16113745	     27.94546129	      0.48774031	     10.80712619	     -0.12501044	     -7.49999987	     10.87628180	      5.37372952	     -8.07164501	     -2.00802974	    -14.99208796	      7.22717006	      9.25953967	     94.40386125	      4.58406653	    -11.94620756	      7.75475546	     12.38631734	     90.09247938
     45.33333330	     -7.82553785	     -4.21654715	     -1.51016517	      0.80835289	      0.79503735	      0.73944865	     29.65128583	      5.77959250	      0.73853576	     14.14023670	      0.24679369	      0.89887237	     -7.92300538	     -7.49999987	     -1.63597330	     -3.99393284	     -3.18602758	     31.15294059	      0.54372138	      6.13263669	     -0.63919824	     -7.49999987	     11.22567284	      6.49368103	     -8.04473152	     -2.11678970	    -15.43817765	      7.48852781	      8.99722205	     94.93530001	      3.88850334	    -11.02131848	      7.31894828	     10.87737469	     90.52181682
     45.35000000	     -7.30275971	     -5.15392518	     -1.39170237	      0.81225101	      0.79785255	      0.74392492	     28.33169704	      7.05231631	      0.49926039	     15.44501039	      0.26956628	      1.41627497	     -8.63723882	     -7.49999987	     -1.13442253	     -5.71350686	     -3.67571866	     34.80937919	      0.60753828	      1.16098935	     -0.07930151	     -7.49999987	     11.39327567	      7.13209828	     -7.66023315	     -2.37755088	    -15.71594633	      7.57818712	      8.86747670	     95.07606554	      3.04592528	    -10.43758953	      7.22011900	     10.30266504	     90.63635538
     45.36666670	     -7.02116981	     -6.03941370	     -1.06349563	      0.81210866	      0.79975935	      0.74638348	     26.95171130	      8.16406677	      0.25338717	     16.01906492	      0.27958543	      1.68817225	     -9.59638937	     -7.49999987	      0.53473555	     -7.30001498	     -3.51629306	     39.28986311	      0.68573747	     -4.08248479	     -1.19367749	     -7.49999987	     11.94891599	      7.79096018	     -7.41196557	     -2.88921780	    -16.02733591	      7.87692555	      8.95487647	     95.42902734	      2.55908856	     -9.83090774	      6.90058735	      9.06165303	     90.92960311
     45.38333330	     -6.81154795	     -6.60525177	     -0.82038129	      0.81098314	      0.80050966	      0.74889381	     25.59132537	      8.98545516	      0.10915980	     16.30743244	      0.28461839	      2.34395235	    -10.24624639	     -7.49999987	      2.84801778	     -8.56033916	     -3.43873340	     43.99362449	      0.76783360	     -8.57994125	     -2.07011955	     -7.49999987	     12.30918624	      8.07712260	     -6.89377666	     -3.31460527	    -16.18661047	      8.08996093	      9.28618876	     95.52856634	      2.15414417	     -9.51014851	      6.70214450	      8.50426654	     91.05953526
     45.40000000	     -7.20482231	     -6.85265611	     -0.54167562	      0.81090637	      0.79943376	      0.75188735	     24.84164235	      9.41687585	      0.01850066	     16.40352024	      0.28629544	      3.11027805	    -10.87232144	     -7.49999987	      6.07599897	     -9.32963472	     -3.09409837	     48.50116048	      0.84650494	    -11.93640119	     -3.43248975	     -7.49999987	     13.44649196	      8.00179831	     -6.47606708	     -4.00423223	    -16.21538566	      8.35547951	      9.79988663	     95.83820374	      1.81421949	     -9.31586832	      6.52273624	      7.64331472	     91.57306942
     45.41666670	     -7.52524027	     -7.02848667	     -0.13919881	      0.81089594	      0.79851353	      0.75453976	     23.96710994	      9.70002583	     -0.11570333	     16.28956977	      0.28430663	      4.06466165	    -11.28817675	     -7.49999987	      9.24259689	     -9.87596112	     -2.58767813	     52.53874657	      0.91697411	    -13.72329378	     -4.74701268	     -7.49999987	     14.31401665	      7.94222697	     -6.21788144	     -4.42491159	    -16.11029257	      8.36872377	     10.20872585	     96.01032962	      1.42871119	     -9.25500932	      6.51751022	      7.30761234	     92.11101076
     45.43333330	     -7.29093821	     -6.95335136	      0.15702075	      0.81027253	      0.79984401	      0.75666657	     22.33615365	      9.81989052	      0.26752832	     15.85924068	      0.27679597	      5.22063761	    -11.54304662	     -7.49999987	     11.60760093	    -10.05359933	     -2.30562023	     55.79306199	      0.97377263	    -14.10108219	     -5.79452632	     -7.49999987	     14.19607432	      7.64391731	     -5.78949973	     -4.31086146	    -15.71518728	      8.38604031	     10.51134853	     95.93642976	      1.18670937	     -9.48837433	      6.49957507	      7.46618337	     92.09660331
     45.45000000	     -8.28492802	     -6.91017561	      0.62941114	      0.80908493	      0.80187412	      0.75766687	     22.09087727	      9.69874454	     -0.14608559	     15.53232692	      0.27109025	      6.29135502	    -11.48343921	     -7.49999987	     15.52242558	     -9.90709990	     -1.53412165	     58.80482489	      1.02633781	    -13.66219231	     -7.96531517	     -7.49999987	     15.89538253	      7.50836987	     -5.86995182	     -4.55313955	    -15.62042925	      8.12289694	     10.84544976	     95.82174119	      0.56843810	     -9.38163600	      6.73897590	      7.13508206	     92.56993776
     45.46666670	     -8.38212027	     -6.60312169	      0.92089928	      0.80743603	      0.80560154	      0.75926854	     20.66740561	      9.47362657	      0.01107909	     14.79986107	      0.25830630	      7.23336386	    -11.34229234	     -7.49999987	     18.25442106	     -9.44512283	     -1.24563701	     60.92781468	      1.06339097	    -11.92408917	     -9.78393026	     -7.49999987	     16.08798223	      7.15406027	     -5.45516753	     -4.29446216	    -15.34804229	      8.04431258	     11.11331027	     95.70639032	      0.33371009	     -9.49907693	      6.87008073	      7.27528232	     92.69417710
     45.48333330	     -8.43453839	     -5.95102479	      0.89734185	      0.80602069	      0.80889511	      0.76132234	     19.18874949	      8.97865312	      0.45335930	     13.99191909	      0.24420506	      8.00725044	    -11.14114749	     -7.49999987	     20.71382491	     -8.60543253	     -1.49663744	     62.09847866	      1.08382291	     -9.42914964	    -11.44509278	     -7.49999987	     15.87412773	      6.51120130	     -4.93477737	     -3.81319620	    -14.94860133	      8.04215034	     11.52961889	     95.58948312	      0.04407509	     -9.74169301	      6.91205571	      7.46206104	     92.66154462
     45.50000000	     -8.95138783	     -5.39072801	      0.85557408	      0.80452236	      0.81098584	      0.76342403	     18.43241671	      8.43354755	      0.06795960	     13.50398456	      0.23568899	      9.18647853	     -9.91336255	     -7.49999987	     23.71309819	     -7.71885966	     -1.66810381	     62.70882752	      1.09447551	     -5.79613845	    -12.54406481	     -7.49999987	     16.49684139	      5.98585054	     -4.38690998	     -3.61973806	    -14.65804498	      8.40938397	     11.55937757	     93.78919289	     -0.14139721	     -9.91084092	      9.80241735	      7.00673320	     93.12342619
